<svg width="130" height="34" viewBox="0 0 130 34" fill="none" xmlns="http://www.w3.org/2000/svg">
<path d="M99.7504 24.4503V0.183838H104.341V8.54593C105.522 7.00469 107.555 6.02091 109.982 6.02091C114.081 6.02091 117.065 8.77548 117.065 13.7927V24.4503H112.474V14.4158C112.474 11.4973 110.867 9.92322 108.44 9.92322C105.948 9.92322 104.341 11.4973 104.341 14.4158V24.4503H99.7504Z" fill="#003D29"/>
<path d="M97.6214 19.269C97.6214 22.3843 94.8997 24.7454 90.4727 24.7454C85.9145 24.7454 82.7336 22.0892 82.5369 18.7115H87.1606C87.3246 20.0888 88.6035 21.1382 90.4399 21.1382C92.2435 21.1382 93.2272 20.3184 93.2272 19.269C93.2272 16.0226 82.9632 18.0885 82.9632 11.4316C82.9632 8.41469 85.6522 5.98804 90.1447 5.98804C94.5389 5.98804 97.1951 8.38189 97.4575 11.9891H93.0633C92.9321 10.579 91.8172 9.62801 90.0136 9.62801C88.3084 9.62801 87.4229 10.3167 87.4229 11.366C87.4229 14.6781 97.4903 12.6121 97.6214 19.269Z" fill="#003D29"/>
<path d="M61.755 15.3011C61.755 9.62801 65.4278 5.98804 70.0515 5.98804C72.97 5.98804 74.9704 7.36532 76.0526 8.87378V6.28317H80.6763V24.4502H76.0526V21.794C74.9704 23.3681 72.9045 24.7454 70.0187 24.7454C65.4278 24.7454 61.755 20.9742 61.755 15.3011ZM76.0526 15.3667C76.0526 11.9235 73.7571 10.0215 71.232 10.0215C68.7726 10.0215 66.4443 11.8579 66.4443 15.3011C66.4443 18.7443 68.7726 20.7119 71.232 20.7119C73.7571 20.7119 76.0526 18.8099 76.0526 15.3667Z" fill="#003D29"/>
<path d="M41.1702 15.3012C41.1702 9.62809 44.8429 5.98812 49.4995 5.98812C51.8933 5.98812 54.1888 7.10306 55.4349 8.80827V0.183838H60.0915V24.4503H55.4349V21.7613C54.3528 23.4337 52.3196 24.7454 49.4667 24.7454C44.8429 24.7454 41.1702 20.9743 41.1702 15.3012ZM55.4677 15.3668C55.4677 11.9236 53.1722 10.0216 50.6472 10.0216C48.1878 10.0216 45.8595 11.858 45.8595 15.3012C45.8595 18.7444 48.1878 20.712 50.6472 20.712C53.1722 20.712 55.4677 18.81 55.4677 15.3668Z" fill="#003D29"/>
<path d="M20.5851 15.3011C20.5851 9.62801 24.2578 5.98804 28.8816 5.98804C31.8001 5.98804 33.8005 7.36532 34.8826 8.87378V6.28317H39.5064V24.4502H34.8826V21.794C33.8005 23.3681 31.7345 24.7454 28.8488 24.7454C24.2578 24.7454 20.5851 20.9742 20.5851 15.3011ZM34.8826 15.3667C34.8826 11.9235 32.5872 10.0215 30.0621 10.0215C27.6027 10.0215 25.2744 11.8579 25.2744 15.3011C25.2744 18.7443 27.6027 20.7119 30.0621 20.7119C32.5872 20.7119 34.8826 18.8099 34.8826 15.3667Z" fill="#003D29"/>
<path d="M0 15.3011C0 9.62801 3.67277 5.98804 8.29651 5.98804C11.1495 5.98804 13.2154 7.29974 14.2976 8.87378V6.28317H18.9213V24.5814C18.9213 29.5003 15.9044 33.4026 9.93614 33.4026C4.82051 33.4026 1.24612 30.8448 0.787021 26.6801H5.34519C5.80428 28.3198 7.50949 29.4019 9.80497 29.4019C12.33 29.4019 14.2976 27.959 14.2976 24.5814V21.7613C13.2154 23.3353 11.1495 24.7454 8.29651 24.7454C3.67277 24.7454 0 20.9742 0 15.3011ZM14.2976 15.3667C14.2976 11.9235 12.0021 10.0215 9.47705 10.0215C7.01761 10.0215 4.68933 11.8579 4.68933 15.3011C4.68933 18.7443 7.01761 20.7119 9.47705 20.7119C12.0021 20.7119 14.2976 18.8099 14.2976 15.3667Z" fill="#003D29"/>
<g clip-path="url(#clip0_63_413)">
<path fill-rule="evenodd" clip-rule="evenodd" d="M120.582 16.9433C120.629 16.5796 120.685 16.389 121.023 15.4744C121.339 14.6193 121.647 13.9757 122.014 13.3987C122.162 13.1643 122.293 12.9248 122.301 12.8653C122.322 12.7306 122.214 12.5575 122.047 12.4578C121.935 12.3914 121.883 12.3896 120.566 12.3896H119.203L119.07 12.4666C118.891 12.5715 118.812 12.6852 118.796 12.8688C118.784 13.0122 118.8 13.0507 119.039 13.4389C119.569 14.2993 119.865 14.9603 120.289 16.2071C120.406 16.5499 120.458 16.7667 120.474 16.9503M122 11.5905C122.192 11.5223 122.338 11.3492 122.368 11.155C122.38 11.0676 122.375 10.7773 122.354 10.5098C122.333 10.2422 122.308 9.8505 122.298 9.6389C122.272 9.0933 122.214 8.60191 122.164 8.50573C122.099 8.37807 121.979 8.28189 121.832 8.23992C121.74 8.21194 121.337 8.20495 120.486 8.21194L119.272 8.22243L119.131 8.30288C118.885 8.44452 118.856 8.55119 118.805 9.46753C118.781 9.90121 118.744 10.4363 118.721 10.6567C118.666 11.232 118.737 11.4261 119.07 11.5765C119.196 11.6342 119.309 11.6377 120.537 11.6377C121.597 11.6377 121.893 11.6272 122 11.5905ZM123.639 11.5852C123.663 11.5765 123.914 11.4121 124.199 11.2232C124.514 11.0117 124.966 10.7511 125.363 10.5535C125.726 10.3716 126.026 10.2002 126.045 10.1635C126.11 10.0446 125.991 8.89394 125.888 8.65087C125.813 8.469 125.651 8.31687 125.472 8.25741C125.341 8.21369 125.156 8.2067 124.349 8.21544C123.433 8.22418 123.379 8.22943 123.292 8.29413C123.084 8.44977 123.063 8.51272 123.065 8.93591C123.069 9.74732 123.149 11.1218 123.201 11.2687C123.271 11.4628 123.51 11.6377 123.637 11.587L123.639 11.5852ZM125.259 7.41627C125.494 7.35332 125.597 7.15396 125.54 6.87067C125.472 6.54366 124.922 4.59208 124.87 4.4924C124.785 4.33152 124.563 4.13741 124.39 4.07271C124.23 4.01325 124.132 4.00451 123.531 4.00451C122.856 4.00451 122.852 4.00451 122.755 4.08845C122.701 4.13392 122.647 4.21086 122.634 4.25808C122.612 4.34551 122.645 4.79319 122.732 5.60634C122.758 5.85466 122.802 6.28485 122.83 6.56464C122.884 7.13123 122.919 7.23091 123.105 7.34632C123.229 7.42327 123.245 7.42502 124.213 7.43026C124.751 7.43376 125.224 7.42851 125.261 7.41802L125.259 7.41627ZM121.763 7.40578C121.881 7.36906 121.975 7.28512 122.042 7.15746C122.101 7.0403 122.087 6.52267 122.003 5.77247C121.975 5.52415 121.937 5.16391 121.916 4.97156C121.858 4.41896 121.827 4.2948 121.712 4.17589C121.552 4.01151 121.456 3.99926 120.481 4.00976C119.642 4.02025 119.588 4.02375 119.499 4.0902C119.349 4.20212 119.267 4.35076 119.243 4.5606C119.035 6.30233 118.985 7.00008 119.056 7.1697C119.079 7.22566 119.152 7.3061 119.218 7.34632C119.337 7.41977 119.358 7.42152 120.504 7.42851C121.144 7.43201 121.71 7.42152 121.763 7.40578ZM124.096 3.16163C124.274 3.00949 124.195 2.76641 123.735 2.03719C123.241 1.25377 122.54 0.463343 122.26 0.372409C122.087 0.31645 121.947 0.356671 121.888 0.479081C121.851 0.554276 121.857 0.620728 121.928 0.944242C121.974 1.15059 122.08 1.64898 122.164 2.04944C122.336 2.87483 122.362 2.95702 122.509 3.07944C122.668 3.21234 122.809 3.23682 123.433 3.23682C123.981 3.23682 124.009 3.23332 124.094 3.16163H124.096ZM121.381 3.1931C121.442 3.17037 121.529 3.10916 121.572 3.05845C121.7 2.90981 121.691 2.78565 121.436 1.18557C121.295 0.298963 121.25 0.171306 121.041 0.0698797C120.868 -0.0140591 120.354 -0.0280489 120.179 0.0471462C120.05 0.103105 119.907 0.249998 119.858 0.379404C119.82 0.48083 119.51 2.31524 119.471 2.66149C119.443 2.9203 119.489 3.04271 119.653 3.14589C119.768 3.21758 119.81 3.22108 120.521 3.22808C121.055 3.23332 121.3 3.22283 121.381 3.1931Z" fill="#FF9522"/>
<path fill-rule="evenodd" clip-rule="evenodd" d="M121.037 24.4925C121.098 24.4925 121.161 24.4873 121.222 24.4716C122.233 24.2285 122.994 23.5447 123.264 22.6231C123.33 22.3993 123.339 22.2717 123.36 21.128C123.386 19.8007 123.412 19.5506 123.581 18.9613C123.745 18.3895 124.059 17.7582 124.431 17.2528C124.725 16.8506 125.407 16.1913 125.855 15.8731C126.563 15.3694 126.95 15.1141 126.969 15.1334C126.98 15.1439 126.865 15.2575 126.713 15.3852C126.347 15.693 126.082 15.9762 125.799 16.3592C124.934 17.5361 124.519 18.6955 124.425 20.2082C124.375 21.0091 124.366 22.8435 124.413 22.7788C124.434 22.7508 124.621 22.6354 124.828 22.5235C125.864 21.9656 126.894 21.1909 127.667 20.39C128.755 19.2621 129.456 17.9068 129.81 16.249C129.977 15.4604 130.03 14.3534 129.986 12.4246L129.962 11.2739L129.712 11.2844C128.748 11.3211 127.238 11.7601 126.122 12.3267C123.688 13.563 122.12 15.5758 121.436 18.344C121.208 19.2673 121.107 19.9616 121.072 20.8115C121.046 21.4602 121.025 21.5389 120.84 21.6788C120.821 21.6928 120.795 21.7068 120.767 21.7156C120.455 21.8275 120.247 22.1283 120.247 22.4605V23.6969C120.247 24.1358 120.601 24.4908 121.039 24.4908L121.037 24.4925Z" fill="#0BAA6D"/>
</g>
<defs>
<clipPath id="clip0_63_413">
<rect width="11.2962" height="24.4926" fill="white" transform="matrix(-1 0 0 1 130 0)"/>
</clipPath>
</defs>
</svg>
